<?xml version="1.0" encoding="UTF-8"?>
<svg version="1.1" xmlns="http://www.w3.org/2000/svg" width="736" height="736">
<path d="M0 0 C242.88 0 485.76 0 736 0 C736 242.88 736 485.76 736 736 C493.12 736 250.24 736 0 736 C0 493.12 0 250.24 0 0 Z " fill="#A9A9A9" transform="translate(0,0)"/>
<path d="M0 0 C0.78069855 0.00060425 1.56139709 0.0012085 2.36575317 0.00183105 C23.14540109 0.04519746 43.1839637 1.70857314 63.5 6.1875 C64.46486328 6.39358887 65.42972656 6.59967773 66.42382812 6.81201172 C86.80836986 11.20500532 106.61216403 17.2904156 125.5 26.1875 C126.85762451 26.81386353 126.85762451 26.81386353 128.24267578 27.45288086 C141.08726151 33.38751949 153.48201787 39.71686246 165.5 47.1875 C166.52351563 47.81398438 167.54703125 48.44046875 168.6015625 49.0859375 C183.19248885 58.16930292 196.50872566 68.98144362 209.5 80.1875 C210.33402344 80.90679688 211.16804687 81.62609375 212.02734375 82.3671875 C222.46420295 91.57107332 232.61813907 101.46223398 241.5 112.1875 C242.2528125 113.074375 243.005625 113.96125 243.78125 114.875 C263.2464423 137.94485754 279.45642227 163.43576909 291.5 191.1875 C292.27081638 192.93099708 293.04165103 194.67448608 293.8125 196.41796875 C294.62641728 198.27802631 295.43892417 200.13870168 296.25 202 C296.62737305 202.85996582 297.00474609 203.71993164 297.39355469 204.60595703 C299.54290381 209.60795618 301.32090847 214.59463885 302.82080078 219.82788086 C303.44139425 221.98389663 304.1121817 224.11229242 304.81640625 226.2421875 C305.02330078 226.87769531 305.23019531 227.51320313 305.44335938 228.16796875 C305.85419436 229.42509789 306.27081535 230.68035171 306.69335938 231.93359375 C308.67150423 238.07266399 309.40206751 243.59990506 310.5 250.1875 C101.94 250.1875 -106.62 250.1875 -321.5 250.1875 C-314.43355503 221.92172011 -301.23920122 192.70433267 -285.5 168.1875 C-284.67242187 166.85912109 -284.67242187 166.85912109 -283.828125 165.50390625 C-280.44510058 160.10753322 -276.92227643 154.83579337 -273.23828125 149.640625 C-272.09967429 148.03378192 -270.97161678 146.41939898 -269.85546875 144.796875 C-263.07585353 134.95293721 -255.91900145 125.4795074 -247.80078125 116.69921875 C-245.96783065 114.69822174 -244.19853171 112.66917196 -242.43359375 110.609375 C-238.07934859 105.62153098 -233.42961497 100.93104876 -228.74951172 96.25170898 C-227.26106763 94.76108385 -225.78082723 93.26262983 -224.30078125 91.76367188 C-218.73005245 86.1610183 -213.02409259 80.97184549 -206.83496094 76.04882812 C-204.83758305 74.45660635 -202.90740751 72.82275581 -201 71.125 C-196.40507951 67.16160887 -191.44599555 63.69466048 -186.5 60.1875 C-185.48679688 59.46304688 -184.47359375 58.73859375 -183.4296875 57.9921875 C-177.528708 53.83105453 -171.54078271 49.88045433 -165.375 46.125 C-164.73530273 45.73062744 -164.09560547 45.33625488 -163.43652344 44.92993164 C-158.85945724 42.1875 -158.85945724 42.1875 -155.5 42.1875 C-155.5 41.5275 -155.5 40.8675 -155.5 40.1875 C-151.75451213 38.27704202 -148.00475967 36.37528403 -144.2512207 34.48071289 C-142.98087639 33.838102 -141.7116261 33.19332275 -140.44360352 32.54614258 C-132.80857983 28.65146343 -125.21154907 25.13864182 -117.15869141 22.17675781 C-115.09407722 21.40854691 -113.06794865 20.53656757 -111.0625 19.625 C-106.50302349 17.78521123 -101.8452558 16.53542407 -97.109375 15.2265625 C-93.877408 14.29614776 -90.73165383 13.24705176 -87.5625 12.125 C-81.85898236 10.18337698 -76.11898611 9.01007078 -70.203125 7.90234375 C-66.87285429 7.25947504 -63.60402044 6.50194031 -60.3125 5.6875 C-54.80223681 4.40132063 -49.27622802 3.42829169 -43.6875 2.5625 C-42.53374878 2.3778418 -42.53374878 2.3778418 -41.35668945 2.18945312 C-27.66935679 0.15315828 -13.81108249 -0.01997291 0 0 Z " fill="#F7F7F7" transform="translate(373.5,485.8125)"/>
<path d="M0 0 C29.52885445 -1.23948278 58.08947401 6.15459307 82.54199219 23.11035156 C83.35410156 23.65820312 84.16621094 24.20605469 85.00292969 24.77050781 C100.62337183 35.66901114 113.63434218 49.14096528 123.50292969 65.41259766 C124.44931372 66.95892156 125.43134272 68.48328645 126.41699219 70.00488281 C138.90042176 89.92821349 143.94743765 113.94006625 143.91699219 137.17285156 C143.9167807 137.84744415 143.91656921 138.52203674 143.91635132 139.21707153 C143.87998638 150.90331448 142.63284541 161.82448382 139.54199219 173.11035156 C139.37070801 173.79516602 139.19942383 174.47998047 139.02294922 175.18554688 C135.17855095 190.51143816 127.36937347 206.68653148 117.54199219 219.11035156 C116.88199219 219.11035156 116.22199219 219.11035156 115.54199219 219.11035156 C115.21134766 220.15835938 115.21134766 220.15835938 114.87402344 221.22753906 C113.22260474 224.80157717 110.90270613 227.40496491 108.22949219 230.23535156 C107.69678711 230.80229736 107.16408203 231.36924316 106.61523438 231.95336914 C92.21414676 247.00886036 75.7090105 257.33932106 56.5144043 265.28222656 C54.684412 266.05055604 52.87750159 266.87324308 51.07324219 267.70019531 C46.96473616 269.34087084 42.92255114 270.32436866 38.60449219 271.23535156 C37.84458984 271.40421875 37.0846875 271.57308594 36.30175781 271.74707031 C26.19232797 273.93989284 16.35709223 274.35164945 6.04199219 274.36035156 C5.32479004 274.36102631 4.60758789 274.36170105 3.86865234 274.36239624 C-6.54083981 274.34681927 -16.36009434 273.96760208 -26.45800781 271.11035156 C-27.09480469 270.93874512 -27.73160156 270.76713867 -28.38769531 270.59033203 C-47.73549998 265.32520717 -64.20223458 256.63828241 -80.02050781 244.42285156 C-80.59236816 243.98360352 -81.16422852 243.54435547 -81.75341797 243.09179688 C-85.50982185 240.11208048 -88.43140778 236.85313247 -91.45800781 233.11035156 C-93.11820708 231.4372425 -94.78478728 229.77043849 -96.45800781 228.11035156 C-111.50045643 211.4237854 -121.79729095 192.10133471 -126.95410156 170.2421875 C-127.41844742 168.27771658 -127.92087249 166.32235011 -128.42675781 164.36816406 C-132.5279293 146.40655192 -132.62617582 124.35531688 -127.58300781 106.54785156 C-127.31085449 105.58455933 -127.31085449 105.58455933 -127.03320312 104.60180664 C-126.51339338 102.7698223 -125.98594869 100.94000924 -125.45800781 99.11035156 C-125.24402344 98.26988281 -125.03003906 97.42941406 -124.80957031 96.56347656 C-120.85229917 81.65946838 -113.30896013 68.57393747 -104.45800781 56.11035156 C-103.73253652 54.97068825 -103.00849975 53.83011007 -102.28613281 52.68847656 C-101.38121094 51.41230469 -101.38121094 51.41230469 -100.45800781 50.11035156 C-99.79800781 50.11035156 -99.13800781 50.11035156 -98.45800781 50.11035156 C-98.19375 49.52157227 -97.92949219 48.93279297 -97.65722656 48.32617188 C-96.41431837 46.02962572 -95.107943 44.5020199 -93.27050781 42.65722656 C-92.65433594 42.03847656 -92.03816406 41.41972656 -91.40332031 40.78222656 C-90.76136719 40.14800781 -90.11941406 39.51378906 -89.45800781 38.86035156 C-88.49507813 37.88582031 -88.49507813 37.88582031 -87.51269531 36.89160156 C-86.89652344 36.27800781 -86.28035156 35.66441406 -85.64550781 35.03222656 C-85.0821875 34.47116211 -84.51886719 33.91009766 -83.93847656 33.33203125 C-82.45800781 32.11035156 -82.45800781 32.11035156 -80.45800781 32.11035156 C-80.45800781 31.45035156 -80.45800781 30.79035156 -80.45800781 30.11035156 C-79.05957031 28.90869141 -79.05957031 28.90869141 -77.08300781 27.57128906 C-76.35307617 27.07701416 -75.62314453 26.58273926 -74.87109375 26.07348633 C-74.07477539 25.54940186 -73.27845703 25.02531738 -72.45800781 24.48535156 C-71.64364258 23.94773193 -70.82927734 23.4101123 -69.99023438 22.85620117 C-48.69782816 9.04340331 -25.37532006 1.13921779 0 0 Z " fill="#FEFEFE" transform="translate(362.4580078125,154.8896484375)"/>
<path d="M0 0 C0.99 0.33 1.98 0.66 3 1 C2.01 1.33 1.02 1.66 0 2 C0 2.99 0 3.98 0 5 C-2.97 4.505 -2.97 4.505 -6 4 C-4.03617993 2.49440461 -2.21736634 1.10868317 0 0 Z " fill="#ECECEC" transform="translate(246,512)"/>
<path d="M0 0 C-0.33 0.99 -0.66 1.98 -1 3 C-4.80269732 4.6900877 -7.05272168 5.19873962 -11 4 C-9.73308493 3.32591692 -8.46129251 2.66099503 -7.1875 2 C-6.47980469 1.62875 -5.77210938 1.2575 -5.04296875 0.875 C-3 0 -3 0 0 0 Z " fill="#B8B8B8" transform="translate(433,414)"/>
<path d="M0 0 C0.66 0 1.32 0 2 0 C1.75 1.875 1.75 1.875 1 4 C-1.0625 5.25 -1.0625 5.25 -3 6 C-1.125 1.125 -1.125 1.125 0 0 Z M-4 6 C-4 9 -4 9 -4 9 Z " fill="#EDEDED" transform="translate(109,623)"/>
<path d="M0 0 C-0.33 1.32 -0.66 2.64 -1 4 C-1.61875 4.12375 -2.2375 4.2475 -2.875 4.375 C-5.19120832 4.87197356 -5.19120832 4.87197356 -7 7 C-6.61402985 4.20171644 -6.19863427 3.1794116 -4.0625 1.25 C-2 0 -2 0 0 0 Z " fill="#F4F4F4" transform="translate(294,178)"/>
</svg>
