<?xml version="1.0" encoding="UTF-8"?>
<svg version="1.1" xmlns="http://www.w3.org/2000/svg" width="512" height="512">
<path d="M0 0 C1.24400094 -0.00226556 2.48800188 -0.00453111 3.76969981 -0.00686532 C7.20176513 -0.01208013 10.63377784 -0.01285371 14.06584334 -0.01167095 C17.7755837 -0.01146609 21.48531637 -0.0169938 25.1950531 -0.02172852 C32.45532403 -0.03001717 39.71558685 -0.03278255 46.97586212 -0.03334089 C52.88038091 -0.0338169 58.78489703 -0.03587585 64.68941498 -0.03904152 C81.44833554 -0.04784318 98.20724971 -0.05246165 114.96617261 -0.05171105 C115.86870222 -0.05167109 116.77123184 -0.05163113 117.70111084 -0.05158997 C118.6047488 -0.05154909 119.50838675 -0.0515082 120.43940768 -0.05146609 C135.0799799 -0.05105974 149.72052639 -0.06062764 164.36109117 -0.07472833 C179.41207586 -0.08910936 194.46304802 -0.09599757 209.51403975 -0.09513456 C217.95672045 -0.09480319 226.39937416 -0.09752396 234.84204865 -0.10831261 C242.03074296 -0.11744034 249.21939807 -0.11957424 256.40809569 -0.11280318 C260.07147823 -0.10954944 263.73478564 -0.1094396 267.39816093 -0.11815643 C271.3803243 -0.12753385 275.36231544 -0.12121559 279.34448242 -0.11352539 C280.48721564 -0.11866895 281.62994885 -0.12381252 282.80731034 -0.12911195 C300.60337001 -0.05352755 315.22187975 3.4826842 328.324646 15.93840027 C338.79166033 26.95390444 341.72921133 39.4890561 341.70036316 54.14361572 C341.70559984 55.45870619 341.71083652 56.77379665 341.71623188 58.12873834 C341.73037512 61.76862328 341.73207587 65.40842267 341.73163497 69.04833114 C341.73328647 72.97831914 341.7463593 76.90827224 341.75782776 80.83824158 C341.78065252 89.42733565 341.78859585 98.01640497 341.7936542 106.60552526 C341.79691457 111.97285469 341.80343916 117.34017698 341.81065559 122.70750237 C341.83021929 137.58005701 341.8466245 152.45260503 341.84953213 167.32517338 C341.8497197 168.2764441 341.84990727 169.22771481 341.85010052 170.20781192 C341.85046676 172.13612076 341.85083046 174.06442959 341.85119163 175.99273843 C341.85137444 176.94990205 341.85155725 177.90706567 341.85174561 178.89323425 C341.85201643 180.33074082 341.85201643 180.33074082 341.85229272 181.79728793 C341.85583242 197.31681064 341.88284301 212.83619442 341.92024349 228.35566897 C341.95837085 244.30496063 341.97768993 260.25418344 341.97799164 276.20352167 C341.97857526 285.15213917 341.98700549 294.100591 342.0159893 303.04916573 C342.04056264 310.67088567 342.04774616 318.29237953 342.03274178 325.91412843 C342.02559675 329.79851308 342.02632515 333.68245181 342.04915237 337.56678581 C342.06990244 341.13203419 342.06699537 344.69649842 342.04627753 348.26173978 C342.04118815 350.1429528 342.0604388 352.02418485 342.08093923 353.90529305 C341.93667547 368.71629823 336.43617241 380.44957851 326.4262085 391.13371277 C317.96007894 398.70867079 306.41967187 404.24672967 294.95436096 404.26793385 C293.83562717 404.27239169 292.71689339 404.27684953 291.56425858 404.28144246 C290.33510098 404.2812581 289.10594337 404.28107374 287.83953857 404.28088379 C286.53376736 404.28456048 285.22799614 404.28823717 283.8826561 404.29202527 C280.25495413 404.30203778 276.6272687 404.30576087 272.99955487 404.30841458 C269.0879682 404.31231993 265.1763946 404.32189821 261.26481628 404.33062744 C251.81584529 404.35038678 242.36687323 404.36045803 232.91788673 404.36935523 C228.46643631 404.37373957 224.01498708 404.37910606 219.5635376 404.3843441 C204.7623011 404.40135693 189.96106533 404.41585012 175.15982056 404.42309284 C171.31909179 404.42500269 167.47836302 404.42692303 163.63763428 404.42887878 C162.68305667 404.42936252 161.72847906 404.42984626 160.74497485 404.43034466 C145.28860081 404.43864128 129.83230426 404.46397172 114.37596405 404.49645946 C98.50136371 404.52955379 82.62680271 404.54754381 66.7521677 404.55073708 C57.84159605 404.55290013 48.93113735 404.56161859 40.02059937 404.58719826 C32.43025173 404.60893782 24.84004449 404.61693975 17.24966925 404.60723148 C13.37978585 404.60269599 9.51019188 404.60452878 5.64034843 404.62399292 C1.43627938 404.64495457 -2.76715174 404.63460967 -6.97125244 404.62145996 C-8.18256427 404.63242921 -9.39387609 404.64339845 -10.64189434 404.6547001 C-24.21794889 404.55247555 -36.82752338 399.80938224 -47.0737915 390.72746277 C-55.89762042 381.35214455 -61.68402983 370.52655574 -61.70801258 357.52320004 C-61.71247042 356.3989918 -61.71692827 355.27478357 -61.7215212 354.11650842 C-61.72133684 352.88637272 -61.72115247 351.65623701 -61.72096252 350.38882446 C-61.72647756 348.42276067 -61.72647756 348.42276067 -61.732104 346.41697842 C-61.7421043 342.78013422 -61.74583762 339.14330653 -61.74849331 335.50645053 C-61.75240222 331.58329309 -61.76198014 327.66014864 -61.77070618 323.73699951 C-61.79045397 314.26323275 -61.80053463 304.78946494 -61.80943397 295.31568274 C-61.81381961 290.85178199 -61.8191857 286.38788243 -61.82442284 281.92398262 C-61.84143339 267.08067159 -61.85592694 252.23736129 -61.86317158 237.39404202 C-61.8650814 233.54351233 -61.86700174 229.69298266 -61.86895752 225.842453 C-61.86944126 224.88545028 -61.869925 223.92844756 -61.8704234 222.94244475 C-61.87872143 207.44410198 -61.90405529 191.94583645 -61.9365382 176.4475274 C-61.96963194 160.52769492 -61.98762243 144.60790165 -61.99081582 128.68803459 C-61.99297876 119.75288576 -62.00169585 110.81784956 -62.02727699 101.8827343 C-62.04901563 94.27228222 -62.05701888 86.66197015 -62.04731021 79.05149054 C-62.04277465 75.17147413 -62.04460798 71.29174642 -62.06407166 67.41176987 C-62.08177004 63.85281413 -62.08065235 60.29435624 -62.06517436 56.73539472 C-62.06169597 54.85261415 -62.0777747 52.96982795 -62.09477884 51.08712095 C-61.99248638 37.46787421 -57.51785004 25.76375283 -48.31988525 15.65715027 C-34.43834891 2.33265792 -18.4511809 -0.02481082 0 0 Z M-30.4487915 35.00871277 C-31.28023682 35.96390808 -31.28023682 35.96390808 -32.128479 36.93840027 C-36.38639236 43.40582541 -35.86043501 50.29475424 -35.84121704 57.7532959 C-35.84574815 59.03839135 -35.85027927 60.3234868 -35.85494769 61.64752454 C-35.86716736 65.20811459 -35.86691845 68.76861061 -35.86455894 72.32921684 C-35.86415051 76.1718699 -35.87519238 80.01449292 -35.88467407 83.85713196 C-35.9012793 91.38317884 -35.9067834 98.9091944 -35.90789883 106.43525807 C-35.90884951 112.5534638 -35.91296083 118.67165921 -35.91930008 124.78986168 C-35.93691106 142.14014851 -35.94613916 159.49041061 -35.94463913 176.84070645 C-35.94455922 177.77585312 -35.94447931 178.7109998 -35.94439697 179.67448425 C-35.94431521 180.6107741 -35.94423345 181.54706395 -35.94414921 182.51172622 C-35.94333632 197.6854782 -35.96247524 212.85913091 -35.99067371 228.03285418 C-36.01940631 243.61709568 -36.0332138 259.20128878 -36.03148615 274.78555745 C-36.03082239 283.53335366 -36.03630873 292.28104579 -36.05784225 301.02881813 C-36.07605899 308.47684622 -36.08039736 315.92472306 -36.06682341 323.37276379 C-36.06029624 327.1714012 -36.06016718 330.96974848 -36.07752991 334.76835823 C-36.09617592 338.89018429 -36.08369971 343.01133949 -36.06826782 347.13317871 C-36.07855495 348.32851913 -36.08884207 349.52385955 -36.09944093 350.75542241 C-36.03316473 358.76461295 -34.83240511 365.18247886 -29.644104 371.47355652 C-29.00215088 372.00078308 -28.36019775 372.52800964 -27.6987915 373.07121277 C-27.06199463 373.61648621 -26.42519775 374.16175964 -25.769104 374.72355652 C-19.25501704 378.90787217 -12.42571587 378.42038968 -4.95420837 378.40113831 C-3.66911292 378.40566942 -2.38401747 378.41020053 -1.05997974 378.41486895 C2.50061032 378.42708863 6.06110633 378.42683971 9.62171257 378.4244802 C13.46436563 378.42407177 17.30698865 378.43511364 21.14962769 378.44459534 C28.67567457 378.46120056 36.20169012 378.46670466 43.7277538 378.46782009 C49.84595953 378.46877078 55.96415494 378.4728821 62.08235741 378.47922134 C79.43264424 378.49683233 96.78290634 378.50606042 114.13320217 378.5045604 C115.53592219 378.50444053 115.53592219 378.50444053 116.96697998 378.50431824 C117.90326983 378.50423648 118.83955968 378.50415471 119.80422195 378.50407048 C134.97797393 378.50325758 150.15162664 378.5223965 165.3253499 378.55059497 C180.90959141 378.57932757 196.49378451 378.59313506 212.07805318 378.59140742 C220.82584938 378.59074365 229.57354152 378.59622999 238.32131386 378.61776352 C245.76934195 378.63598025 253.21721879 378.64031862 260.66525952 378.62674467 C264.46389692 378.62021751 268.2622442 378.62008844 272.06085396 378.63745117 C276.18268002 378.65609718 280.30383522 378.64362097 284.42567444 378.62818909 C286.21868507 378.64361978 286.21868507 378.64361978 288.04791814 378.6593622 C296.05710868 378.59308599 302.47497459 377.39232637 308.76605225 372.20402527 C309.55689209 371.24109558 309.55689209 371.24109558 310.3637085 370.25871277 C310.90898193 369.62191589 311.45425537 368.98511902 312.01605225 368.32902527 C314.82242017 363.960109 315.67589383 359.61421499 315.6834774 354.48268318 C315.69315074 352.82103463 315.69315074 352.82103463 315.7030195 351.12581742 C315.6999223 349.91921176 315.69682509 348.71260611 315.69363403 347.46943665 C315.7004307 345.53460979 315.7004307 345.53460979 315.70736468 343.56069553 C315.71958462 339.98677339 315.71933541 336.41294492 315.71697593 332.83900666 C315.71656751 328.98205772 315.72760921 325.1251387 315.73709106 321.26820374 C315.75369605 313.71441839 315.75920037 306.16066427 315.76031582 298.6068622 C315.76126645 292.46671806 315.76537746 286.32658421 315.77171707 280.18644333 C315.7893274 262.77575332 315.79855616 245.36508797 315.79705612 227.95438899 C315.79697621 227.0159926 315.7968963 226.0775962 315.79681396 225.11076355 C315.79669132 223.70144939 315.79669132 223.70144939 315.7965662 222.26366423 C315.79575316 207.03427138 315.81489604 191.8049774 315.8430907 176.57561316 C315.8718163 160.9360059 315.8856312 145.29644686 315.88390315 129.65681255 C315.88323918 120.87719031 315.88873461 112.09767175 315.91025925 103.31807327 C315.92846669 95.84366634 315.93282193 88.36941008 315.9192404 80.89499058 C315.91270876 77.0823006 315.91260039 73.26989975 315.9299469 69.45723724 C315.94856775 65.32192457 315.93612853 61.18728178 315.92068481 57.05195618 C315.9361155 55.24873986 315.9361155 55.24873986 315.95185792 53.40909493 C315.88313981 45.0936605 314.53593796 39.93449323 309.1762085 33.38371277 C301.47650086 27.08395197 295.15189358 26.55416499 285.48345947 26.6257782 C284.1877825 26.61953824 282.89210553 26.61329827 281.55716562 26.60686922 C277.97624412 26.59022326 274.39575088 26.59840035 270.81482816 26.61081409 C266.94699327 26.61988182 263.0792309 26.60588635 259.21141052 26.59489441 C251.64047412 26.57712292 244.06969649 26.58094303 236.49875391 26.59254497 C230.34482356 26.60158443 224.19093765 26.60280108 218.03700256 26.59844971 C216.72240885 26.59753031 216.72240885 26.59753031 215.38125768 26.59659234 C213.60078679 26.59531341 211.82031591 26.59401656 210.03984505 26.59270197 C193.3506625 26.58130019 176.66156789 26.59440357 159.97239977 26.61590344 C145.65731672 26.63377406 131.34236342 26.63066984 117.02728271 26.61222839 C100.39716694 26.59081458 83.7671282 26.58239879 67.13700056 26.59467745 C65.36313853 26.59595162 63.58927648 26.59720911 61.81541443 26.59844971 C60.94267707 26.59906681 60.06993972 26.59968391 59.17075577 26.60031971 C53.02536315 26.60377108 46.88001945 26.59794887 40.7346344 26.58853149 C33.24379071 26.57730446 25.75311465 26.58036634 18.26229012 26.60165447 C14.44149688 26.61215547 10.62098296 26.61630314 6.80019188 26.60305786 C2.65620469 26.58890961 -1.48707932 26.60582093 -5.63104248 26.6257782 C-6.8357134 26.61685531 -8.04038432 26.60793242 -9.28156042 26.59873915 C-17.90489581 26.679395 -24.62937334 28.07553037 -30.4487915 35.00871277 Z " fill="#000000" transform="translate(116.57379150390625,51.86628723144531)"/>
<path d="M0 0 C4.49770536 4.49770536 5.34016543 10.54555955 5.3732605 16.64341736 C5.36247467 17.44687088 5.35168884 18.2503244 5.34057617 19.078125 C5.34123329 20.38197899 5.34123329 20.38197899 5.34190369 21.71217346 C5.33982938 24.5583517 5.31656304 27.40392587 5.29296875 30.25 C5.28736796 32.23396483 5.28310014 34.21793382 5.28010559 36.2019043 C5.2686949 41.4034995 5.23926036 46.60484023 5.20599365 51.80633545 C5.17521116 57.12215737 5.16158281 62.43802073 5.14648438 67.75390625 C5.11438693 78.16938215 5.06323648 88.58466985 5 99 C6.11198257 98.99333817 7.22396515 98.98667633 8.36964417 98.97981262 C18.86004364 98.91894072 29.35040718 98.87399812 39.84094334 98.84456348 C45.23396236 98.82892202 50.62683856 98.80771131 56.01977539 98.77368164 C61.2263574 98.74103428 66.4328022 98.72313556 71.63947868 98.71536827 C73.62375993 98.70983444 75.60803386 98.69902819 77.59225655 98.68280983 C80.37620267 98.66096421 83.15958517 98.65803607 85.94360352 98.65942383 C86.76000305 98.648638 87.57640259 98.63785217 88.4175415 98.6267395 C93.68284939 98.65505374 97.31981013 99.54320245 102 102 C105.05023968 105.14863451 105.27619849 108.20822525 105.5 112.4375 C105.4069466 116.26819822 105.07293176 118.63388811 102.625 121.625 C98.2777491 125.55822701 94.86290933 125.13698342 89.23583984 125.11352539 C88.32846573 125.11367142 87.42109161 125.11381744 86.48622131 125.1139679 C83.47776932 125.11326951 80.46937872 125.10548054 77.4609375 125.09765625 C75.37871332 125.09579181 73.29648869 125.09436803 71.21426392 125.09336853 C65.72663162 125.08954541 60.23902567 125.07971686 54.75140381 125.06866455 C49.15458533 125.05844602 43.55776261 125.05386996 37.9609375 125.04882812 C26.97394674 125.03809443 15.98697556 125.02102045 5 125 C5.00999275 126.66797386 5.00999275 126.66797386 5.02018738 128.36964417 C5.08105928 138.86004364 5.12600188 149.35040718 5.15543652 159.84094334 C5.17107798 165.23396236 5.19228869 170.62683856 5.22631836 176.01977539 C5.25896572 181.2263574 5.27686444 186.4328022 5.28463173 191.63947868 C5.29016556 193.62375993 5.30097181 195.60803386 5.31719017 197.59225655 C5.33903579 200.37620267 5.34196393 203.15958517 5.34057617 205.94360352 C5.351362 206.76000305 5.36214783 207.57640259 5.3732605 208.4175415 C5.34132638 214.35600069 4.31260937 219.10923828 0.5 223.875 C-3.41188841 226.80891631 -8.3528519 226.45816953 -13 226 C-16.72210861 224.38169191 -18.89930441 222.46614772 -21 219 C-22.27157829 214.79869768 -22.13243611 210.63507557 -22.11352539 206.28417969 C-22.11367142 205.40577423 -22.11381744 204.52736877 -22.1139679 203.62234497 C-22.11327185 200.7221631 -22.10549386 197.82204564 -22.09765625 194.921875 C-22.09579098 192.90977005 -22.09436759 190.89766465 -22.09336853 188.88555908 C-22.08955198 183.59194686 -22.07972902 178.29836211 -22.06866455 173.00476074 C-22.05843192 167.60213594 -22.05386694 162.1995067 -22.04882812 156.796875 C-22.038106 146.1979046 -22.0210399 135.59895459 -22 125 C-23.72768112 125.01665459 -23.72768112 125.01665459 -25.49026489 125.03364563 C-36.3488232 125.13503768 -47.20728537 125.20997329 -58.06620979 125.25906086 C-63.64883287 125.28514589 -69.23107356 125.32052468 -74.81347656 125.37719727 C-80.20162587 125.43155499 -85.58940755 125.46142877 -90.97780991 125.47438622 C-93.03273175 125.48361926 -95.08763365 125.50164945 -97.14239883 125.52865028 C-100.02261965 125.5649902 -102.90132481 125.56994323 -105.78173828 125.56762695 C-106.62978531 125.58560333 -107.47783234 125.60357971 -108.35157776 125.62210083 C-112.54525306 125.58564941 -115.1911954 125.27237712 -118.51364136 122.58952332 C-122.56205716 118.37312953 -122.288516 115.36611244 -122.20703125 109.69921875 C-121.94346932 106.26296789 -121.41551417 104.49343398 -119 102 C-113.4840113 99.10446202 -109.11220903 98.57792756 -102.94360352 98.65942383 C-102.06475998 98.65898575 -101.18591644 98.65854767 -100.28044128 98.65809631 C-97.3963646 98.66017434 -94.51288049 98.68345862 -91.62890625 98.70703125 C-89.62109189 98.71263071 -87.61327342 98.71689916 -85.60545349 98.71989441 C-80.33644169 98.73131556 -75.06768035 98.76075927 -69.79876709 98.79400635 C-64.41600939 98.82476612 -59.03321099 98.83841236 -53.65039062 98.85351562 C-43.10015074 98.88563157 -32.55009625 98.93679488 -22 99 C-22.00999275 97.35414917 -22.00999275 97.35414917 -22.02018738 95.67504883 C-22.08109263 85.3174067 -22.12601784 74.95980107 -22.15543652 64.60202026 C-22.17106956 59.27741004 -22.19226479 53.95294478 -22.22631836 48.62841797 C-22.25899588 43.48666973 -22.27687077 38.34506065 -22.28463173 33.20321655 C-22.29016017 31.2448813 -22.30095584 29.28655336 -22.31719017 27.32827759 C-22.33907598 24.57806137 -22.34196227 21.82841477 -22.34057617 19.078125 C-22.351362 18.27467148 -22.36214783 17.47121796 -22.3732605 16.64341736 C-22.34016543 10.54555955 -21.49770536 4.49770536 -17 0 C-11.41512746 -1.86162418 -5.58487254 -1.86162418 0 0 Z " fill="#616161" transform="translate(265,142)"/>
</svg>
